<?xml version="1.0" encoding="iso-8859-1"?>
<!-- Uploaded to: SVG Repo, www.svgrepo.com, Generator: SVG Repo Mixer Tools -->
<svg height="800px" width="800px" version="1.1" id="Layer_1" xmlns="http://www.w3.org/2000/svg" xmlns:xlink="http://www.w3.org/1999/xlink" 
	 viewBox="0 0 511.999 511.999" xml:space="preserve">
<polygon style="fill:#CFF09E;" points="354.388,166.202 354.388,316.406 429.49,241.305 "/>
<g>
	<path style="fill:#507C5C;" d="M508.044,233.147l-140.15-140.15V40.192c0-7.459-6.046-13.505-13.505-13.505h-52.804L278.853,3.956
		c-5.274-5.274-13.825-5.274-19.1,0l-22.731,22.731H30.263c-7.459,0-13.505,6.046-13.505,13.505v41.589
		c0,7.459,6.046,13.505,13.505,13.505s13.505-6.046,13.505-13.505V53.697h198.848h53.374h44.894v44.894v67.611v150.202V386.8v1.638
		h-1.638H146.149H43.769V286.059v-33.516v-72.732c0-7.459-6.046-13.505-13.505-13.505s-13.505,6.046-13.505,13.505v67.137
		L3.955,259.751c-5.274,5.274-5.274,13.825,0,19.1l12.803,12.803v110.289c0,7.459,6.046,13.505,13.505,13.505h110.289l92.594,92.594
		c2.638,2.638,6.094,3.956,9.55,3.956s6.913-1.318,9.55-3.956l92.594-92.594h9.548c7.459,0,13.505-6.046,13.505-13.505V386.8
		v-64.802l71.145-71.147c5.274-5.274,5.274-13.825,0-19.099l-71.145-71.145v-29.412l111.502,111.502l-43.872,43.872
		c-5.274,5.274-5.274,13.825,0,19.1c5.274,5.272,13.825,5.272,19.1,0l53.421-53.421
		C513.318,246.973,513.318,238.421,508.044,233.147z M242.696,479.395l-63.944-63.944h127.889L242.696,479.395z M410.391,241.305
		l-42.497,42.497v-84.994L410.391,241.305z"/>
	<path style="fill:#507C5C;" d="M210.709,330.967H80.034c-7.459,0-13.505-6.046-13.505-13.505v-81.335
		c0-4.644,2.388-8.965,6.32-11.435c15.9-9.99,34.317-15.27,53.26-15.27c36.117,0,69.347,19.314,86.722,50.405
		c7.936,14.171,12.134,30.285,12.134,46.593c0,4.349-0.296,8.688-0.878,12.895C223.162,325.993,217.452,330.967,210.709,330.967z
		 M93.539,303.957H197.91c-0.392-10.849-3.363-21.498-8.651-30.942c-12.613-22.569-36.808-36.583-63.15-36.583
		c-11.4,0-22.528,2.608-32.569,7.59L93.539,303.957L93.539,303.957z"/>
</g>
<g>
	<path style="fill:#CFF09E;" d="M201.041,266.415c-14.48-25.912-42.617-43.488-74.932-43.488c-16.981,0-32.787,4.851-46.074,13.2
		v81.334h92.165C175.274,297.135,185.825,279.197,201.041,266.415z"/>
	<path style="fill:#CFF09E;" d="M304.61,260.729v56.733H172.198c3.075-20.327,13.627-38.263,28.843-51.046
		c14.922-12.538,34.346-20.125,55.581-20.125C274.413,246.291,290.94,251.616,304.61,260.729z"/>
</g>
<path style="fill:#507C5C;" d="M304.61,74.496H80.034c-7.459,0-13.505,6.046-13.505,13.505v148.125v81.335
	c0,7.459,6.046,13.505,13.505,13.505h92.165h132.412c7.459,0,13.505-6.046,13.505-13.505v-56.733V88.002
	C318.115,80.543,312.069,74.496,304.61,74.496z M291.104,101.507v137.359c-10.945-3.999-22.583-6.08-34.483-6.08
	c-18.508,0-36.544,5.12-52.096,14.582c0,0,0.001,0,0.001-0.001c-18.545-23.7-47.414-37.944-78.419-37.944
	c-11.178,0-22.167,1.853-32.569,5.413V101.507H291.104z M93.539,244.02c10.042-4.982,21.169-7.59,32.569-7.59
	c22.817,0,44.018,10.521,57.481,28.002c-10.495,11.289-18.117,24.831-22.25,39.523h-67.8V244.02z M291.104,303.957H189.832
	c4.245-10.404,11.041-19.761,19.897-27.202c13.015-10.937,29.67-16.96,46.893-16.96c12.171,0,23.96,2.945,34.483,8.57
	L291.104,303.957L291.104,303.957z"/>
<circle style="fill:#CFF09E;" cx="223.551" cy="164.656" r="34.53"/>
<path style="fill:#507C5C;" d="M223.547,212.688c-26.486,0-48.035-21.549-48.035-48.035s21.549-48.035,48.035-48.035
	s48.035,21.549,48.035,48.035C271.583,191.139,250.034,212.688,223.547,212.688z M223.547,143.627
	c-11.593,0-21.025,9.432-21.025,21.025c0,11.593,9.432,21.025,21.025,21.025s21.025-9.432,21.025-21.025
	S235.14,143.627,223.547,143.627z"/>
</svg>